<mxfile host="app.diagrams.net" modified="2024-05-26T13:12:07.735Z" agent="Mozilla/5.0 (Windows NT 10.0; Win64; x64; rv:126.0) Gecko/20100101 Firefox/126.0" etag="qT6-CS6Ardgpw_8wiNv2" version="24.4.6" type="google">
  <diagram name="Page-1" id="a7904f86-f2b4-8e86-fa97-74104820619b">
    <mxGraphModel grid="1" page="1" gridSize="10" guides="1" tooltips="1" connect="1" arrows="1" fold="1" pageScale="1" pageWidth="1100" pageHeight="850" background="none" math="0" shadow="0">
      <root>
        <mxCell id="0" />
        <mxCell id="1" parent="0" />
        <mxCell id="4_l_18D_vid2331-jLlM-1" value="R_ROOM" style="swimlane;fontStyle=0;childLayout=stackLayout;horizontal=1;startSize=26;fillColor=none;horizontalStack=0;resizeParent=1;resizeParentMax=0;resizeLast=0;collapsible=1;marginBottom=0;whiteSpace=wrap;html=1;" vertex="1" parent="1">
          <mxGeometry x="170" y="90" width="320" height="260" as="geometry" />
        </mxCell>
        <mxCell id="4_l_18D_vid2331-jLlM-2" value="&lt;div&gt;ROOM_NUM: INTEGER NOT NULL &amp;lt;&amp;lt;PK, PI&amp;gt;&amp;gt;&lt;br&gt;&lt;/div&gt;&lt;div&gt;&lt;br&gt;&lt;/div&gt;" style="text;strokeColor=none;fillColor=none;align=left;verticalAlign=top;spacingLeft=4;spacingRight=4;overflow=hidden;rotatable=0;points=[[0,0.5],[1,0.5]];portConstraint=eastwest;whiteSpace=wrap;html=1;" vertex="1" parent="4_l_18D_vid2331-jLlM-1">
          <mxGeometry y="26" width="320" height="24" as="geometry" />
        </mxCell>
        <mxCell id="4_l_18D_vid2331-jLlM-3" value="&lt;div&gt;ROOM_NAME: VARCHAR(20) NOT NULL&lt;br&gt;&lt;/div&gt;" style="text;strokeColor=none;fillColor=none;align=left;verticalAlign=top;spacingLeft=4;spacingRight=4;overflow=hidden;rotatable=0;points=[[0,0.5],[1,0.5]];portConstraint=eastwest;whiteSpace=wrap;html=1;" vertex="1" parent="4_l_18D_vid2331-jLlM-1">
          <mxGeometry y="50" width="320" height="26" as="geometry" />
        </mxCell>
        <mxCell id="4_l_18D_vid2331-jLlM-4" value="&lt;div&gt;FLOR_NUM: BYTEINT&lt;br&gt;&lt;/div&gt;&lt;div&gt;&lt;br&gt;&lt;/div&gt;&lt;div&gt;BUILD_NAME: VARCHAR(20)&lt;br&gt;&lt;/div&gt;&lt;div&gt;&lt;br&gt;&lt;/div&gt;&lt;div&gt;ROOM_TYP: VARCHAR(10) &lt;br&gt;&lt;/div&gt;&lt;div&gt;&lt;br&gt;&lt;/div&gt;&lt;div&gt;ROOM_DAY_RATE: SMALLINT NOT NULL&lt;/div&gt;&lt;div&gt;&lt;br&gt;&lt;/div&gt;&lt;div&gt;CRTN_DT: DATE NOT NULL&lt;/div&gt;&lt;div&gt;&lt;br&gt;&lt;/div&gt;&lt;div&gt;EXEC_ID: INTEGER NOT NULL &amp;lt;&amp;lt;FK&amp;gt;&amp;gt;&lt;br&gt;&lt;/div&gt;&lt;div&gt;&lt;br&gt;&lt;/div&gt;" style="text;strokeColor=none;fillColor=none;align=left;verticalAlign=top;spacingLeft=4;spacingRight=4;overflow=hidden;rotatable=0;points=[[0,0.5],[1,0.5]];portConstraint=eastwest;whiteSpace=wrap;html=1;" vertex="1" parent="4_l_18D_vid2331-jLlM-1">
          <mxGeometry y="76" width="320" height="184" as="geometry" />
        </mxCell>
        <mxCell id="4_l_18D_vid2331-jLlM-7" value="O_TRET" style="swimlane;fontStyle=0;childLayout=stackLayout;horizontal=1;startSize=26;fillColor=none;horizontalStack=0;resizeParent=1;resizeParentMax=0;resizeLast=0;collapsible=1;marginBottom=0;whiteSpace=wrap;html=1;" vertex="1" parent="1">
          <mxGeometry x="608" y="100" width="320" height="230" as="geometry" />
        </mxCell>
        <mxCell id="4_l_18D_vid2331-jLlM-8" value="&lt;div&gt;TRET_ID: INTEGER NOT NULL &amp;lt;&amp;lt;PK, PI&amp;gt;&amp;gt;&lt;br&gt;&lt;/div&gt;&lt;div&gt;&lt;br&gt;&lt;/div&gt;" style="text;strokeColor=none;fillColor=none;align=left;verticalAlign=top;spacingLeft=4;spacingRight=4;overflow=hidden;rotatable=0;points=[[0,0.5],[1,0.5]];portConstraint=eastwest;whiteSpace=wrap;html=1;" vertex="1" parent="4_l_18D_vid2331-jLlM-7">
          <mxGeometry y="26" width="320" height="24" as="geometry" />
        </mxCell>
        <mxCell id="4_l_18D_vid2331-jLlM-9" value="&lt;div&gt;MDC_ID: INTEGER &amp;lt;&amp;lt;FK&amp;gt;&amp;gt;&lt;br&gt;&lt;/div&gt;" style="text;strokeColor=none;fillColor=none;align=left;verticalAlign=top;spacingLeft=4;spacingRight=4;overflow=hidden;rotatable=0;points=[[0,0.5],[1,0.5]];portConstraint=eastwest;whiteSpace=wrap;html=1;" vertex="1" parent="4_l_18D_vid2331-jLlM-7">
          <mxGeometry y="50" width="320" height="26" as="geometry" />
        </mxCell>
        <mxCell id="4_l_18D_vid2331-jLlM-10" value="&lt;div&gt;MDC_QTY: SMALLINT&lt;br&gt;&lt;/div&gt;&lt;div&gt;&lt;br&gt;&lt;/div&gt;&lt;div&gt;DOSG_DSC: VARCHAR(100) NOT NULL&lt;br&gt;&lt;/div&gt;&lt;div&gt;&lt;br&gt;&lt;/div&gt;&lt;div&gt;CONS_ID: INTEGER NOT NULL &amp;lt;&amp;lt;FK&amp;gt;&amp;gt; &lt;br&gt;&lt;/div&gt;&lt;div&gt;&lt;br&gt;&lt;/div&gt;&lt;div&gt;TRT_CRTN_DTTM: TIMESTAMP(0) NOT NULL&lt;/div&gt;&lt;div&gt;&lt;br&gt;&lt;/div&gt;&lt;div&gt;EXEC_ID: INTEGER NOT NULL &amp;lt;&amp;lt;FK&amp;gt;&amp;gt;&lt;br&gt;&lt;/div&gt;&lt;div&gt;&lt;br&gt;&lt;/div&gt;" style="text;strokeColor=none;fillColor=none;align=left;verticalAlign=top;spacingLeft=4;spacingRight=4;overflow=hidden;rotatable=0;points=[[0,0.5],[1,0.5]];portConstraint=eastwest;whiteSpace=wrap;html=1;" vertex="1" parent="4_l_18D_vid2331-jLlM-7">
          <mxGeometry y="76" width="320" height="154" as="geometry" />
        </mxCell>
        <mxCell id="4_l_18D_vid2331-jLlM-11" value="R_PART" style="swimlane;fontStyle=0;childLayout=stackLayout;horizontal=1;startSize=26;fillColor=none;horizontalStack=0;resizeParent=1;resizeParentMax=0;resizeLast=0;collapsible=1;marginBottom=0;whiteSpace=wrap;html=1;" vertex="1" parent="1">
          <mxGeometry x="600" y="380" width="480" height="110" as="geometry" />
        </mxCell>
        <mxCell id="4_l_18D_vid2331-jLlM-12" value="&lt;div&gt;PART_ID: INTEGER NOT NULL &amp;lt;&amp;lt;PK, PI&amp;gt;&amp;gt; SURROGATE KEY(SRC_ID, SRC_TYPE)&lt;br&gt;&lt;/div&gt;&lt;div&gt;&lt;br&gt;&lt;/div&gt;" style="text;strokeColor=none;fillColor=none;align=left;verticalAlign=top;spacingLeft=4;spacingRight=4;overflow=hidden;rotatable=0;points=[[0,0.5],[1,0.5]];portConstraint=eastwest;whiteSpace=wrap;html=1;" vertex="1" parent="4_l_18D_vid2331-jLlM-11">
          <mxGeometry y="26" width="480" height="24" as="geometry" />
        </mxCell>
        <mxCell id="4_l_18D_vid2331-jLlM-13" value="&lt;div&gt;SRC_ID: INTEGER NOT NULL &amp;lt;&amp;lt;FK&amp;gt;&amp;gt;&lt;/div&gt;" style="text;strokeColor=none;fillColor=none;align=left;verticalAlign=top;spacingLeft=4;spacingRight=4;overflow=hidden;rotatable=0;points=[[0,0.5],[1,0.5]];portConstraint=eastwest;whiteSpace=wrap;html=1;" vertex="1" parent="4_l_18D_vid2331-jLlM-11">
          <mxGeometry y="50" width="480" height="26" as="geometry" />
        </mxCell>
        <mxCell id="4_l_18D_vid2331-jLlM-14" value="&lt;div&gt;SRC_TYPE : VARCHAR(50) NOT NULL&lt;br&gt;&lt;/div&gt;&lt;br&gt;&lt;div&gt;&lt;br&gt;&lt;/div&gt;" style="text;strokeColor=none;fillColor=none;align=left;verticalAlign=top;spacingLeft=4;spacingRight=4;overflow=hidden;rotatable=0;points=[[0,0.5],[1,0.5]];portConstraint=eastwest;whiteSpace=wrap;html=1;" vertex="1" parent="4_l_18D_vid2331-jLlM-11">
          <mxGeometry y="76" width="480" height="34" as="geometry" />
        </mxCell>
        <mxCell id="4_l_18D_vid2331-jLlM-19" value="O_INDV" style="swimlane;fontStyle=0;childLayout=stackLayout;horizontal=1;startSize=26;fillColor=none;horizontalStack=0;resizeParent=1;resizeParentMax=0;resizeLast=0;collapsible=1;marginBottom=0;whiteSpace=wrap;html=1;" vertex="1" parent="1">
          <mxGeometry x="175" y="375" width="340" height="340" as="geometry" />
        </mxCell>
        <mxCell id="4_l_18D_vid2331-jLlM-20" value="&lt;div&gt;PART_ID: INTEGER NOT NULL &amp;lt;&amp;lt;PFK, PI&amp;gt;&amp;gt;&lt;br&gt;&lt;/div&gt;&lt;div&gt;&lt;br&gt;&lt;/div&gt;" style="text;strokeColor=none;fillColor=none;align=left;verticalAlign=top;spacingLeft=4;spacingRight=4;overflow=hidden;rotatable=0;points=[[0,0.5],[1,0.5]];portConstraint=eastwest;whiteSpace=wrap;html=1;" vertex="1" parent="4_l_18D_vid2331-jLlM-19">
          <mxGeometry y="26" width="340" height="24" as="geometry" />
        </mxCell>
        <mxCell id="4_l_18D_vid2331-jLlM-21" value="&lt;div&gt;INDV_NAME: VARCHAR(100) NOT NULL&lt;br&gt;&lt;/div&gt;" style="text;strokeColor=none;fillColor=none;align=left;verticalAlign=top;spacingLeft=4;spacingRight=4;overflow=hidden;rotatable=0;points=[[0,0.5],[1,0.5]];portConstraint=eastwest;whiteSpace=wrap;html=1;" vertex="1" parent="4_l_18D_vid2331-jLlM-19">
          <mxGeometry y="50" width="340" height="26" as="geometry" />
        </mxCell>
        <mxCell id="4_l_18D_vid2331-jLlM-22" value="&lt;div&gt;INDV_FIRS_NAME: VARCHAR(100) NOT NULL&lt;br&gt;&lt;/div&gt;&lt;div&gt;&lt;br&gt;&lt;/div&gt;&lt;div&gt;INDV_STTS_CD: VARCHAR(10) NOT NULL intialize = &#39;Actif&#39;&lt;br&gt;&lt;/div&gt;&lt;div&gt;&lt;br&gt;&lt;/div&gt;&lt;div&gt;CRTN_DTTM: TIMESTAMP(0) NOT NULL &lt;br&gt;&lt;/div&gt;&lt;div&gt;&lt;br&gt;&lt;/div&gt;&lt;div&gt;UPDT_DTTM: TIMESTAMP(0) NOT NULL&lt;/div&gt;&lt;div&gt;&lt;br&gt;&lt;/div&gt;&lt;div&gt;BIRT_DT: DATE&lt;br&gt;&lt;/div&gt;&lt;div&gt;&lt;br&gt;&lt;/div&gt;&lt;div&gt;BIRT_CITY: VARCHAR(100) &lt;br&gt;&lt;/div&gt;&lt;div&gt;&lt;br&gt;&lt;/div&gt;&lt;div&gt;BIRT_CNTR: VARCHAR(100)&lt;/div&gt;&lt;div&gt;&lt;br&gt;&lt;/div&gt;&lt;div&gt;SOCL_NUM: VARCHAR(15)&lt;/div&gt;&lt;div&gt;&lt;br&gt;&lt;/div&gt;&lt;div&gt;EXEC_ID: INTEGER NOT NULL &amp;lt;&amp;lt;FK&amp;gt;&amp;gt;&lt;br&gt;&lt;/div&gt;&lt;div&gt;&lt;br&gt;&lt;/div&gt;" style="text;strokeColor=none;fillColor=none;align=left;verticalAlign=top;spacingLeft=4;spacingRight=4;overflow=hidden;rotatable=0;points=[[0,0.5],[1,0.5]];portConstraint=eastwest;whiteSpace=wrap;html=1;" vertex="1" parent="4_l_18D_vid2331-jLlM-19">
          <mxGeometry y="76" width="340" height="264" as="geometry" />
        </mxCell>
        <mxCell id="4_l_18D_vid2331-jLlM-23" value="O_STFF" style="swimlane;fontStyle=0;childLayout=stackLayout;horizontal=1;startSize=26;fillColor=none;horizontalStack=0;resizeParent=1;resizeParentMax=0;resizeLast=0;collapsible=1;marginBottom=0;whiteSpace=wrap;html=1;" vertex="1" parent="1">
          <mxGeometry x="618" y="595" width="320" height="170" as="geometry" />
        </mxCell>
        <mxCell id="4_l_18D_vid2331-jLlM-24" value="&lt;div&gt;PART_ID: INTEGER NOT NULL &amp;lt;&amp;lt;PFK, PI&amp;gt;&amp;gt;&lt;br&gt;&lt;/div&gt;&lt;div&gt;&lt;br&gt;&lt;/div&gt;" style="text;strokeColor=none;fillColor=none;align=left;verticalAlign=top;spacingLeft=4;spacingRight=4;overflow=hidden;rotatable=0;points=[[0,0.5],[1,0.5]];portConstraint=eastwest;whiteSpace=wrap;html=1;" vertex="1" parent="4_l_18D_vid2331-jLlM-23">
          <mxGeometry y="26" width="320" height="24" as="geometry" />
        </mxCell>
        <mxCell id="4_l_18D_vid2331-jLlM-25" value="&lt;div&gt;WORK_STRT_DTTM: TIMESTAMP(0)&amp;nbsp; NOT NULL&lt;/div&gt;" style="text;strokeColor=none;fillColor=none;align=left;verticalAlign=top;spacingLeft=4;spacingRight=4;overflow=hidden;rotatable=0;points=[[0,0.5],[1,0.5]];portConstraint=eastwest;whiteSpace=wrap;html=1;" vertex="1" parent="4_l_18D_vid2331-jLlM-23">
          <mxGeometry y="50" width="320" height="26" as="geometry" />
        </mxCell>
        <mxCell id="4_l_18D_vid2331-jLlM-26" value="&lt;div&gt;WORK_END_DTTM: TIMESTAMP(0)&lt;br&gt;&lt;/div&gt;&lt;div&gt;&lt;br&gt;&lt;/div&gt;&lt;div&gt;WORK_END_RESN: VARCHAR(100)&lt;br&gt;&lt;/div&gt;&lt;div&gt;&lt;br&gt;&lt;/div&gt;&lt;div&gt;EXEC_ID: INTEGER NOT NULL &amp;lt;&amp;lt;FK&amp;gt;&amp;gt;&lt;br&gt;&lt;/div&gt;&lt;div&gt;&lt;br&gt;&lt;/div&gt;" style="text;strokeColor=none;fillColor=none;align=left;verticalAlign=top;spacingLeft=4;spacingRight=4;overflow=hidden;rotatable=0;points=[[0,0.5],[1,0.5]];portConstraint=eastwest;whiteSpace=wrap;html=1;" vertex="1" parent="4_l_18D_vid2331-jLlM-23">
          <mxGeometry y="76" width="320" height="94" as="geometry" />
        </mxCell>
        <mxCell id="4_l_18D_vid2331-jLlM-27" value="O_TELP" style="swimlane;fontStyle=0;childLayout=stackLayout;horizontal=1;startSize=26;fillColor=none;horizontalStack=0;resizeParent=1;resizeParentMax=0;resizeLast=0;collapsible=1;marginBottom=0;whiteSpace=wrap;html=1;" vertex="1" parent="1">
          <mxGeometry x="220" y="760" width="320" height="190" as="geometry" />
        </mxCell>
        <mxCell id="4_l_18D_vid2331-jLlM-28" value="&lt;div&gt;PART_ID: INTEGER NOT NULL &amp;lt;&amp;lt;PFK, PI&amp;gt;&amp;gt;&lt;br&gt;&lt;/div&gt;&lt;div&gt;&lt;br&gt;&lt;/div&gt;" style="text;strokeColor=none;fillColor=none;align=left;verticalAlign=top;spacingLeft=4;spacingRight=4;overflow=hidden;rotatable=0;points=[[0,0.5],[1,0.5]];portConstraint=eastwest;whiteSpace=wrap;html=1;" vertex="1" parent="4_l_18D_vid2331-jLlM-27">
          <mxGeometry y="26" width="320" height="24" as="geometry" />
        </mxCell>
        <mxCell id="4_l_18D_vid2331-jLlM-29" value="&lt;div&gt;CNTR_IND: VARCHAR(5)&lt;br&gt;&lt;/div&gt;" style="text;strokeColor=none;fillColor=none;align=left;verticalAlign=top;spacingLeft=4;spacingRight=4;overflow=hidden;rotatable=0;points=[[0,0.5],[1,0.5]];portConstraint=eastwest;whiteSpace=wrap;html=1;" vertex="1" parent="4_l_18D_vid2331-jLlM-27">
          <mxGeometry y="50" width="320" height="26" as="geometry" />
        </mxCell>
        <mxCell id="4_l_18D_vid2331-jLlM-30" value="&lt;div&gt;TELP_NUM: VARCHAR(20) NOT NULL&lt;br&gt;&lt;/div&gt;&lt;div&gt;&lt;br&gt;&lt;/div&gt;&lt;div&gt;STRT_VALD_DTTM: TIMESTAMP(0) NOT NULL&lt;br&gt;&lt;/div&gt;&lt;div&gt;&lt;br&gt;&lt;/div&gt;&lt;div&gt;END_VALD_DTTM: TIMESTAMP(0) NOT NULL &lt;br&gt;&lt;/div&gt;&lt;div&gt;&lt;br&gt;&lt;/div&gt;&lt;div&gt;EXEC_ID: INTEGER NOT NULL &amp;lt;&amp;lt;FK&amp;gt;&amp;gt;&lt;br&gt;&lt;/div&gt;&lt;div&gt;&lt;br&gt;&lt;/div&gt;" style="text;strokeColor=none;fillColor=none;align=left;verticalAlign=top;spacingLeft=4;spacingRight=4;overflow=hidden;rotatable=0;points=[[0,0.5],[1,0.5]];portConstraint=eastwest;whiteSpace=wrap;html=1;" vertex="1" parent="4_l_18D_vid2331-jLlM-27">
          <mxGeometry y="76" width="320" height="114" as="geometry" />
        </mxCell>
        <mxCell id="4_l_18D_vid2331-jLlM-31" value="O_ADDR" style="swimlane;fontStyle=0;childLayout=stackLayout;horizontal=1;startSize=26;fillColor=none;horizontalStack=0;resizeParent=1;resizeParentMax=0;resizeLast=0;collapsible=1;marginBottom=0;whiteSpace=wrap;html=1;" vertex="1" parent="1">
          <mxGeometry x="230" y="968" width="320" height="300" as="geometry" />
        </mxCell>
        <mxCell id="4_l_18D_vid2331-jLlM-32" value="&lt;div&gt;PART_ID: INTEGER NOT NULL &amp;lt;&amp;lt;PFK, PI&amp;gt;&amp;gt;&lt;br&gt;&lt;/div&gt;&lt;div&gt;&lt;br&gt;&lt;/div&gt;" style="text;strokeColor=none;fillColor=none;align=left;verticalAlign=top;spacingLeft=4;spacingRight=4;overflow=hidden;rotatable=0;points=[[0,0.5],[1,0.5]];portConstraint=eastwest;whiteSpace=wrap;html=1;" vertex="1" parent="4_l_18D_vid2331-jLlM-31">
          <mxGeometry y="26" width="320" height="24" as="geometry" />
        </mxCell>
        <mxCell id="4_l_18D_vid2331-jLlM-33" value="STRT_NUM: VARCHAR(10) NOT NULL" style="text;strokeColor=none;fillColor=none;align=left;verticalAlign=top;spacingLeft=4;spacingRight=4;overflow=hidden;rotatable=0;points=[[0,0.5],[1,0.5]];portConstraint=eastwest;whiteSpace=wrap;html=1;" vertex="1" parent="4_l_18D_vid2331-jLlM-31">
          <mxGeometry y="50" width="320" height="26" as="geometry" />
        </mxCell>
        <mxCell id="4_l_18D_vid2331-jLlM-34" value="&lt;div&gt;STRT_DSC: VARCHAR(250) NOT NULL&lt;br&gt;&lt;/div&gt;&lt;div&gt;&lt;br&gt;&lt;/div&gt;&lt;div&gt;COMP_STRT: VARCHAR(250)&lt;br&gt;&lt;/div&gt;&lt;div&gt;&lt;br&gt;&lt;/div&gt;&lt;div&gt;POST_CD: VARCHAR(10) NOT NULL &lt;br&gt;&lt;/div&gt;&lt;div&gt;&lt;br&gt;&lt;/div&gt;&lt;div&gt;CITY_NAME: VARCHAR(100)&lt;/div&gt;&lt;div&gt;&lt;br&gt;&lt;/div&gt;&lt;div&gt;CNTR_NAME: VARCHAR(100)&lt;/div&gt;&lt;div&gt;&lt;br&gt;&lt;/div&gt;&lt;div&gt;&lt;div&gt;STRT_VALD_DTTM: TIMESTAMP(0) NOT NULL&lt;br&gt;&lt;/div&gt;&lt;div&gt;&lt;br&gt;&lt;/div&gt;END_VALD_DTTM: TIMESTAMP(0) NOT NULL &lt;/div&gt;&lt;div&gt;&lt;br&gt;&lt;/div&gt;&lt;div&gt;EXEC_ID: INTEGER NOT NULL &amp;lt;&amp;lt;FK&amp;gt;&amp;gt;&lt;br&gt;&lt;/div&gt;&lt;div&gt;&lt;br&gt;&lt;/div&gt;" style="text;strokeColor=none;fillColor=none;align=left;verticalAlign=top;spacingLeft=4;spacingRight=4;overflow=hidden;rotatable=0;points=[[0,0.5],[1,0.5]];portConstraint=eastwest;whiteSpace=wrap;html=1;" vertex="1" parent="4_l_18D_vid2331-jLlM-31">
          <mxGeometry y="76" width="320" height="224" as="geometry" />
        </mxCell>
        <mxCell id="4_l_18D_vid2331-jLlM-35" value="O_CONS" style="swimlane;fontStyle=0;childLayout=stackLayout;horizontal=1;startSize=26;fillColor=none;horizontalStack=0;resizeParent=1;resizeParentMax=0;resizeLast=0;collapsible=1;marginBottom=0;whiteSpace=wrap;html=1;" vertex="1" parent="1">
          <mxGeometry x="575" y="978" width="320" height="360" as="geometry" />
        </mxCell>
        <mxCell id="4_l_18D_vid2331-jLlM-36" value="&lt;div&gt;CONS_ID : INTEGER NOT NULL &amp;lt;&amp;lt;PFK, PI&amp;gt;&amp;gt;&lt;br&gt;&lt;/div&gt;&lt;div&gt;&lt;br&gt;&lt;/div&gt;" style="text;strokeColor=none;fillColor=none;align=left;verticalAlign=top;spacingLeft=4;spacingRight=4;overflow=hidden;rotatable=0;points=[[0,0.5],[1,0.5]];portConstraint=eastwest;whiteSpace=wrap;html=1;" vertex="1" parent="4_l_18D_vid2331-jLlM-35">
          <mxGeometry y="26" width="320" height="24" as="geometry" />
        </mxCell>
        <mxCell id="4_l_18D_vid2331-jLlM-37" value="STFF_ID: INTEGER NOT NULL &amp;lt;&amp;lt;FK&amp;gt;&amp;gt;" style="text;strokeColor=none;fillColor=none;align=left;verticalAlign=top;spacingLeft=4;spacingRight=4;overflow=hidden;rotatable=0;points=[[0,0.5],[1,0.5]];portConstraint=eastwest;whiteSpace=wrap;html=1;" vertex="1" parent="4_l_18D_vid2331-jLlM-35">
          <mxGeometry y="50" width="320" height="26" as="geometry" />
        </mxCell>
        <mxCell id="4_l_18D_vid2331-jLlM-38" value="&lt;div&gt;PATN_ID: INTEGER NOT NULL &amp;lt;&amp;lt;FK&amp;gt;&amp;gt;&lt;br&gt;&lt;/div&gt;&lt;div&gt;&lt;br&gt;&lt;/div&gt;&lt;div&gt;CONS_STRT_DTTM: TIMESTAMP(0) NOT NULL&lt;br&gt;&lt;/div&gt;&lt;div&gt;&lt;br&gt;&lt;/div&gt;&lt;div&gt;CONS_END_DTTM: TIMESTAMP(0) NOT NULL &lt;br&gt;&lt;/div&gt;&lt;div&gt;&lt;br&gt;&lt;/div&gt;&lt;div&gt;PATN_WEGH: INTEGER&lt;/div&gt;&lt;div&gt;&lt;br&gt;&lt;/div&gt;&lt;div&gt;PATN_TEMP: INTEGER&lt;/div&gt;&lt;div&gt;&lt;br&gt;&lt;/div&gt;&lt;div&gt;&lt;div&gt;PATH_DESC: VARCHAR(250)&lt;br&gt;&lt;/div&gt;&lt;div&gt;&lt;br&gt;&lt;/div&gt;DIBT_IND: BYTEINT&lt;/div&gt;&lt;div&gt;&lt;br&gt;&lt;/div&gt;&lt;div&gt;TRET_ID TIMESTAMP(0) ???&lt;/div&gt;&lt;div&gt;&lt;br&gt;&lt;/div&gt;&lt;div&gt;HOSP_IND: BYTEINT&lt;br&gt; &lt;/div&gt;&lt;div&gt;&lt;br&gt;&lt;/div&gt;&lt;div&gt;EXEC_ID: INTEGER NOT NULL &amp;lt;&amp;lt;FK&amp;gt;&amp;gt;&lt;br&gt;&lt;/div&gt;&lt;div&gt;&lt;br&gt;&lt;/div&gt;" style="text;strokeColor=none;fillColor=none;align=left;verticalAlign=top;spacingLeft=4;spacingRight=4;overflow=hidden;rotatable=0;points=[[0,0.5],[1,0.5]];portConstraint=eastwest;whiteSpace=wrap;html=1;" vertex="1" parent="4_l_18D_vid2331-jLlM-35">
          <mxGeometry y="76" width="320" height="284" as="geometry" />
        </mxCell>
        <mxCell id="4_l_18D_vid2331-jLlM-39" value="O_HOSP" style="swimlane;fontStyle=0;childLayout=stackLayout;horizontal=1;startSize=26;fillColor=none;horizontalStack=0;resizeParent=1;resizeParentMax=0;resizeLast=0;collapsible=1;marginBottom=0;whiteSpace=wrap;html=1;" vertex="1" parent="1">
          <mxGeometry x="220" y="1300" width="320" height="260" as="geometry" />
        </mxCell>
        <mxCell id="4_l_18D_vid2331-jLlM-40" value="&lt;div&gt;HOSP_ID: INTEGER NOT NULL &amp;lt;&amp;lt;PK&amp;gt;&amp;gt;&lt;br&gt;&lt;/div&gt;&lt;div&gt;&lt;br&gt;&lt;/div&gt;" style="text;strokeColor=none;fillColor=none;align=left;verticalAlign=top;spacingLeft=4;spacingRight=4;overflow=hidden;rotatable=0;points=[[0,0.5],[1,0.5]];portConstraint=eastwest;whiteSpace=wrap;html=1;" vertex="1" parent="4_l_18D_vid2331-jLlM-39">
          <mxGeometry y="26" width="320" height="24" as="geometry" />
        </mxCell>
        <mxCell id="4_l_18D_vid2331-jLlM-41" value="CONS_ID: INTEGER NOT NULL &amp;lt;&amp;lt;PI&amp;gt;&amp;gt;" style="text;strokeColor=none;fillColor=none;align=left;verticalAlign=top;spacingLeft=4;spacingRight=4;overflow=hidden;rotatable=0;points=[[0,0.5],[1,0.5]];portConstraint=eastwest;whiteSpace=wrap;html=1;" vertex="1" parent="4_l_18D_vid2331-jLlM-39">
          <mxGeometry y="50" width="320" height="26" as="geometry" />
        </mxCell>
        <mxCell id="4_l_18D_vid2331-jLlM-42" value="&lt;div&gt;ROOM_NUM: SMALL_INT NOT NULL&lt;br&gt;&lt;/div&gt;&lt;div&gt;&lt;br&gt;&lt;/div&gt;&lt;div&gt;HOSP_STRT_DTTM: TIMESTAMP(0) NOT NULL&lt;br&gt;&lt;/div&gt;&lt;div&gt;&lt;br&gt;&lt;/div&gt;&lt;div&gt;HOSP_END_DTTM: TIMESTAMP(0) NOT NULL &lt;br&gt;&lt;/div&gt;&lt;div&gt;&lt;br&gt;&lt;/div&gt;&lt;div&gt;HOSP_FINAL_RATE: TIMESTAMP(0) NOT NULL&lt;br&gt;&lt;/div&gt;&lt;div&gt;&lt;br&gt;&lt;/div&gt;&lt;div&gt;STFF_ID: INTEGER NOT NULL &amp;lt;&amp;lt;FK&amp;gt;&amp;gt;&lt;br&gt;&lt;/div&gt;&lt;div&gt;&lt;br&gt;&lt;/div&gt;&lt;div&gt;EXEC_ID: INTEGER NOT NULL &amp;lt;&amp;lt;FK&amp;gt;&amp;gt;&lt;br&gt;&lt;/div&gt;&lt;div&gt;&lt;br&gt;&lt;/div&gt;" style="text;strokeColor=none;fillColor=none;align=left;verticalAlign=top;spacingLeft=4;spacingRight=4;overflow=hidden;rotatable=0;points=[[0,0.5],[1,0.5]];portConstraint=eastwest;whiteSpace=wrap;html=1;" vertex="1" parent="4_l_18D_vid2331-jLlM-39">
          <mxGeometry y="76" width="320" height="184" as="geometry" />
        </mxCell>
        <mxCell id="4_l_18D_vid2331-jLlM-43" value="R_MEDC" style="swimlane;fontStyle=0;childLayout=stackLayout;horizontal=1;startSize=26;fillColor=none;horizontalStack=0;resizeParent=1;resizeParentMax=0;resizeLast=0;collapsible=1;marginBottom=0;whiteSpace=wrap;html=1;" vertex="1" parent="1">
          <mxGeometry x="570" y="1380" width="320" height="230" as="geometry" />
        </mxCell>
        <mxCell id="4_l_18D_vid2331-jLlM-44" value="&lt;div&gt;MEDC_ID: INTEGER NOT NULL &amp;lt;&amp;lt;PK, PI&amp;gt;&amp;gt;&lt;br&gt;&lt;/div&gt;&lt;div&gt;&lt;br&gt;&lt;/div&gt;" style="text;strokeColor=none;fillColor=none;align=left;verticalAlign=top;spacingLeft=4;spacingRight=4;overflow=hidden;rotatable=0;points=[[0,0.5],[1,0.5]];portConstraint=eastwest;whiteSpace=wrap;html=1;" vertex="1" parent="4_l_18D_vid2331-jLlM-43">
          <mxGeometry y="26" width="320" height="24" as="geometry" />
        </mxCell>
        <mxCell id="4_l_18D_vid2331-jLlM-45" value="MEDC_CD: VARCHAR(10) NOT NULL" style="text;strokeColor=none;fillColor=none;align=left;verticalAlign=top;spacingLeft=4;spacingRight=4;overflow=hidden;rotatable=0;points=[[0,0.5],[1,0.5]];portConstraint=eastwest;whiteSpace=wrap;html=1;" vertex="1" parent="4_l_18D_vid2331-jLlM-43">
          <mxGeometry y="50" width="320" height="26" as="geometry" />
        </mxCell>
        <mxCell id="4_l_18D_vid2331-jLlM-46" value="&lt;div&gt;MEDC_NAME: VARCHAR(250)&lt;br&gt;&lt;/div&gt;&lt;div&gt;&lt;br&gt;&lt;/div&gt;&lt;div&gt;MEDC_COND: VARCHAR(100)&lt;br&gt;&lt;/div&gt;&lt;div&gt;&lt;br&gt;&lt;/div&gt;&lt;div&gt;MEDC_CATG: VARCHAR(100) NOT NULL &lt;br&gt;&lt;/div&gt;&lt;div&gt;&lt;br&gt;&lt;/div&gt;&lt;div&gt;MANF_BRND: VARCHAR(100) NOT NULL&lt;br&gt;&lt;/div&gt;&lt;div&gt;&lt;br&gt;&lt;/div&gt;&lt;div&gt;EXEC_ID: INTEGER NOT NULL &amp;lt;&amp;lt;FK&amp;gt;&amp;gt;&lt;br&gt;&lt;/div&gt;&lt;div&gt;&lt;br&gt;&lt;/div&gt;" style="text;strokeColor=none;fillColor=none;align=left;verticalAlign=top;spacingLeft=4;spacingRight=4;overflow=hidden;rotatable=0;points=[[0,0.5],[1,0.5]];portConstraint=eastwest;whiteSpace=wrap;html=1;" vertex="1" parent="4_l_18D_vid2331-jLlM-43">
          <mxGeometry y="76" width="320" height="154" as="geometry" />
        </mxCell>
        <mxCell id="4_l_18D_vid2331-jLlM-47" value="T_SUIV_TRMT" style="swimlane;fontStyle=0;childLayout=stackLayout;horizontal=1;startSize=26;fillColor=none;horizontalStack=0;resizeParent=1;resizeParentMax=0;resizeLast=0;collapsible=1;marginBottom=0;whiteSpace=wrap;html=1;" vertex="1" parent="1">
          <mxGeometry x="570" y="1640" width="320" height="190" as="geometry" />
        </mxCell>
        <mxCell id="4_l_18D_vid2331-jLlM-48" value="&lt;div&gt;RUN_ID: INTEGER NOT NULL&lt;br&gt;&lt;/div&gt;&lt;div&gt;&lt;br&gt;&lt;/div&gt;" style="text;strokeColor=none;fillColor=none;align=left;verticalAlign=top;spacingLeft=4;spacingRight=4;overflow=hidden;rotatable=0;points=[[0,0.5],[1,0.5]];portConstraint=eastwest;whiteSpace=wrap;html=1;" vertex="1" parent="4_l_18D_vid2331-jLlM-47">
          <mxGeometry y="26" width="320" height="24" as="geometry" />
        </mxCell>
        <mxCell id="4_l_18D_vid2331-jLlM-49" value="SCRPT_NAME: VARCHAR(250) NOT NULL" style="text;strokeColor=none;fillColor=none;align=left;verticalAlign=top;spacingLeft=4;spacingRight=4;overflow=hidden;rotatable=0;points=[[0,0.5],[1,0.5]];portConstraint=eastwest;whiteSpace=wrap;html=1;" vertex="1" parent="4_l_18D_vid2331-jLlM-47">
          <mxGeometry y="50" width="320" height="26" as="geometry" />
        </mxCell>
        <mxCell id="4_l_18D_vid2331-jLlM-50" value="&lt;div&gt;EXEC_STRT_DTTM: TIMESTAMP(0) NOT NULL&lt;br&gt;&lt;/div&gt;&lt;div&gt;&lt;br&gt;&lt;/div&gt;&lt;div&gt;EXEC_END_DTTM: TIMESTAMP(0)&lt;/div&gt;&lt;div&gt;&lt;br&gt;&lt;/div&gt;&lt;div&gt;EXEC_STTS_CD: VARCHAR(10) NOT NULL&lt;br&gt;&lt;/div&gt;&lt;div&gt;&lt;br&gt;&lt;/div&gt;&lt;div&gt;EXEC_ID: INTEGER NOT NULL &amp;lt;&amp;lt;PK, PI&amp;gt;&amp;gt;&lt;br&gt;&lt;/div&gt;&lt;div&gt;&lt;br&gt;&lt;/div&gt;" style="text;strokeColor=none;fillColor=none;align=left;verticalAlign=top;spacingLeft=4;spacingRight=4;overflow=hidden;rotatable=0;points=[[0,0.5],[1,0.5]];portConstraint=eastwest;whiteSpace=wrap;html=1;" vertex="1" parent="4_l_18D_vid2331-jLlM-47">
          <mxGeometry y="76" width="320" height="114" as="geometry" />
        </mxCell>
        <mxCell id="4_l_18D_vid2331-jLlM-51" value="T_SUIV_RUN" style="swimlane;fontStyle=0;childLayout=stackLayout;horizontal=1;startSize=26;fillColor=none;horizontalStack=0;resizeParent=1;resizeParentMax=0;resizeLast=0;collapsible=1;marginBottom=0;whiteSpace=wrap;html=1;" vertex="1" parent="1">
          <mxGeometry x="220" y="1640" width="320" height="140" as="geometry" />
        </mxCell>
        <mxCell id="4_l_18D_vid2331-jLlM-52" value="&lt;div&gt;RUN_ID: INTEGER NOT NULL &amp;lt;&amp;lt;PK, PI&amp;gt;&amp;gt;&lt;br&gt;&lt;/div&gt;&lt;div&gt;&lt;br&gt;&lt;/div&gt;" style="text;strokeColor=none;fillColor=none;align=left;verticalAlign=top;spacingLeft=4;spacingRight=4;overflow=hidden;rotatable=0;points=[[0,0.5],[1,0.5]];portConstraint=eastwest;whiteSpace=wrap;html=1;" vertex="1" parent="4_l_18D_vid2331-jLlM-51">
          <mxGeometry y="26" width="320" height="24" as="geometry" />
        </mxCell>
        <mxCell id="4_l_18D_vid2331-jLlM-53" value="RUN_STRT_DTTM: TIMESTAMP(0) NOT NULL" style="text;strokeColor=none;fillColor=none;align=left;verticalAlign=top;spacingLeft=4;spacingRight=4;overflow=hidden;rotatable=0;points=[[0,0.5],[1,0.5]];portConstraint=eastwest;whiteSpace=wrap;html=1;" vertex="1" parent="4_l_18D_vid2331-jLlM-51">
          <mxGeometry y="50" width="320" height="26" as="geometry" />
        </mxCell>
        <mxCell id="4_l_18D_vid2331-jLlM-54" value="&lt;div&gt;RUN_E D_DTTM: TIMESTAMP(0)&lt;br&gt;&lt;/div&gt;&lt;div&gt;&lt;br&gt;&lt;/div&gt;&lt;div&gt;RUN_STTS_CD: VARCHAR(10) NOT NULL&lt;br&gt;&lt;/div&gt;&lt;div&gt;&lt;br&gt;&lt;/div&gt;" style="text;strokeColor=none;fillColor=none;align=left;verticalAlign=top;spacingLeft=4;spacingRight=4;overflow=hidden;rotatable=0;points=[[0,0.5],[1,0.5]];portConstraint=eastwest;whiteSpace=wrap;html=1;" vertex="1" parent="4_l_18D_vid2331-jLlM-51">
          <mxGeometry y="76" width="320" height="64" as="geometry" />
        </mxCell>
      </root>
    </mxGraphModel>
  </diagram>
</mxfile>
